<svg width="1720" height="258" viewBox="0 0 1720 258" fill="none" xmlns="http://www.w3.org/2000/svg">
<path d="M320 -28L400 52V172H112.8L80 205.2V212H400V292H2.98023e-07V172L80 92H320V85.2L286.8 52H2.98023e-07V-28H320ZM759.844 -28L839.844 52V292H519.844L439.844 212V-28H759.844ZM726.644 52H632.644L656.244 75.6L736.244 155.6L759.844 179.2V85.2L726.644 52ZM552.644 212H679.844L519.844 52V179.2L552.644 212ZM1199.69 -28L1279.69 52V172H992.488L959.688 205.2V212H1279.69V292H879.688V172L959.688 92H1199.69V85.2L1166.49 52H879.688V-28H1199.69ZM1639.53 -28L1719.53 52V102H1649.53L1719.53 172V292H1319.53V212H1639.53V205.2L1606.33 172H1319.53V92H1639.53V85.2L1606.33 52H1319.53V-28H1639.53Z" fill="#FD6746"/>
</svg>
