<?xml version="1.0" standalone="no"?>
<!DOCTYPE svg PUBLIC "-//W3C//DTD SVG 20010904//EN"
 "http://www.w3.org/TR/2001/REC-SVG-20010904/DTD/svg10.dtd">
<svg version="1.0" xmlns="http://www.w3.org/2000/svg"
 width="2870.000000pt" height="1200.000000pt" viewBox="0 0 2870.000000 1200.000000"
 preserveAspectRatio="xMidYMid meet">

<g transform="translate(0.000000,1200.000000) scale(0.100000,-0.100000)"
fill="" stroke="none">
<path d="M120 9930 l0 -2070 663 2 662 3 3 358 2 357 -255 0 -255 0 0 1350 0
1350 253 2 252 3 3 358 2 357 -665 0 -665 0 0 -2070z"/>
<path d="M12522 11643 l3 -358 248 -3 247 -2 0 -1350 0 -1350 -250 0 -250 0 0
-360 0 -360 663 2 662 3 3 2068 2 2067 -665 0 -665 0 2 -357z"/>
<path d="M1557 11143 c-4 -3 -7 -358 -7 -787 l0 -782 388 -385 c225 -225 406
-397 432 -412 107 -61 -12 -57 1902 -57 l1748 0 -2 358 -3 357 -1560 5 c-1459
5 -1562 6 -1592 22 -17 10 -136 120 -262 244 l-231 226 0 609 0 609 -403 0
c-222 0 -407 -3 -410 -7z"/>
<path d="M2467 11143 c-4 -3 -7 -165 -7 -360 l0 -353 1543 0 c1064 0 1554 -3
1581 -11 30 -8 89 -60 282 -247 l243 -237 1 -607 0 -608 410 0 410 0 0 788 0
788 -387 385 c-282 280 -402 392 -440 412 -111 59 -34 57 -1909 57 -946 0
-1724 -3 -1727 -7z"/>
<path d="M7040 10790 l0 -360 863 0 862 0 50 -24 c37 -18 107 -81 272 -247
l223 -224 2 -205 3 -205 410 0 410 0 3 380 2 380 -377 378 c-208 208 -397 392
-421 408 -23 17 -68 40 -100 52 l-57 22 -1072 3 -1073 3 0 -361z"/>
<path d="M11359 9702 c-129 -126 -248 -236 -266 -245 -29 -16 -193 -17 -2043
-17 l-2010 0 0 -360 0 -360 2198 0 c1444 0 2212 4 2241 11 116 26 135 42 549
454 l392 390 0 178 0 177 -414 0 -413 0 -234 -228z"/>
<path d="M0 3140 l0 -3140 480 0 480 0 0 3140 0 3140 -480 0 -480 0 0 -3140z"/>
<path d="M1640 3140 l0 -3140 6320 0 6320 0 -2 3137 -3 3138 -6317 3 -6318 2
0 -3140z"/>
<path d="M15267 6274 c-4 -4 -7 -1417 -7 -3141 l0 -3133 125 0 125 0 -2 3137
-3 3138 -116 3 c-63 1 -118 -1 -122 -4z"/>
<path d="M16030 3140 l0 -3140 240 0 240 0 0 3140 0 3140 -240 0 -240 0 0
-3140z"/>
<path d="M17037 6273 c-4 -3 -7 -1416 -7 -3140 l0 -3133 560 0 560 0 0 3140 0
3140 -553 0 c-305 0 -557 -3 -560 -7z"/>
<path d="M18677 6274 c-4 -4 -7 -1417 -7 -3141 l0 -3133 125 0 125 0 -2 3137
-3 3138 -116 3 c-63 1 -118 -1 -122 -4z"/>
<path d="M19440 3140 l0 -3140 560 0 560 0 -2 3138 -3 3137 -557 3 -558 2 0
-3140z"/>
<path d="M21080 3140 l0 -3140 1365 0 1365 0 -2 3138 -3 3137 -1362 3 -1363 2
0 -3140z"/>
<path d="M25970 3140 l0 -3140 1365 0 1365 0 -2 3138 -3 3137 -1362 3 -1363 2
0 -3140z"/>
</g>
</svg>
