<svg width="56" height="55" viewBox="0 0 56 55" fill="none" xmlns="http://www.w3.org/2000/svg">
<path d="M10.7934 49.2078C11.4454 50.2915 13.6933 51.0069 21.0561 49.0179C23.0538 48.4778 24.5276 46.7603 24.7807 44.6806L29.2942 7.51245C28.6243 13.5461 26.8618 22.4563 21.5831 31.611C16.087 41.155 9.2601 46.6516 10.7934 49.2078Z" fill=""/>
<path fill-rule="evenodd" clip-rule="evenodd" d="M10.7934 49.2078C11.4454 50.2915 13.6933 51.0069 21.0561 49.0179C23.0538 48.4778 24.5276 46.7603 24.7807 44.6806L29.2942 7.51245C28.6243 13.5461 26.8618 22.4563 21.5831 31.611C16.087 41.155 9.2601 46.6516 10.7934 49.2078Z" fill=""/>
<path d="M44.3001 5.79197C43.6478 4.70839 41.4 3.99304 34.0372 5.98215C32.0395 6.52244 30.5657 8.23986 30.3126 10.3195L25.7991 47.4878C26.469 41.4539 28.2315 32.5437 33.5102 23.389C39.0093 13.845 45.8362 8.34853 44.3001 5.79197Z" fill=""/>
<path fill-rule="evenodd" clip-rule="evenodd" d="M44.3001 5.79197C43.6478 4.70839 41.4 3.99304 34.0372 5.98215C32.0395 6.52244 30.5657 8.23986 30.3126 10.3195L25.7991 47.4878C26.469 41.4539 28.2315 32.5437 33.5102 23.389C39.0093 13.845 45.8362 8.34853 44.3001 5.79197Z" fill=""/>
</svg>
