<svg width="1765" height="258" viewBox="0 0 1765 258" fill="none" xmlns="http://www.w3.org/2000/svg">
<path d="M199.929 341.771C334.5 341.771 419.054 247.095 419.054 119.669C419.054 -7.75654 334.5 -103.028 199.929 -103.028C65.3582 -103.028 -19.7908 -7.75654 -19.7908 119.669C-19.7908 247.095 65.3582 341.771 199.929 341.771ZM199.929 317.953C83.2256 317.953 9.98158 228.636 9.98158 119.669C9.98158 10.1069 83.2216 -79.2102 199.929 -79.2102C316.036 -79.2102 389.281 10.1069 389.281 119.669C389.281 228.636 316.045 317.953 199.929 317.953ZM271.978 81.5635H313.66C307.705 29.1642 266.024 -14.3035 198.738 -14.3035C121.33 -14.3035 79.6489 41.6686 79.6489 119.672C79.6489 198.271 123.712 253.052 203.502 253.052C269.597 253.052 310.087 209.585 313.66 156.59H271.978C269.593 173.262 255.901 211.371 200.525 211.371C138.003 211.371 121.33 166.712 121.33 119.672C121.33 72.0364 138.003 27.3778 200.525 27.3778C255.904 27.3748 269.597 67.2698 271.978 81.5605V81.5635ZM520.875 64.891C520.875 8.32352 542.311 -39.9077 614.36 -39.9077C677.478 -39.9077 692.959 1.77359 692.959 36.3095C692.959 96.4507 654.851 110.74 578.038 155.399C502.416 199.459 455.376 257.813 455.376 332.244H740.595V284.608H520.28V283.415C545.884 185.166 746.55 176.83 746.55 35.7091C746.55 -42.8899 685.812 -87.5484 615.551 -87.5484C513.73 -87.5484 467.285 -20.2629 467.285 64.886L520.875 64.891ZM952.574 340.58C1065.11 340.58 1110.96 243.522 1110.96 126.814C1110.96 10.1069 1065.11 -87.5464 952.574 -87.5464C840.035 -87.5464 794.185 10.1069 794.185 126.814C794.185 243.522 840.035 340.58 952.574 340.58ZM952.574 292.944C873.975 292.944 847.773 214.347 847.773 126.814C847.773 39.2818 873.972 -39.9107 952.571 -39.9107C1031.17 -39.9107 1057.37 39.2838 1057.37 126.814C1057.37 214.345 1031.18 292.944 952.574 292.944ZM1218.14 64.888C1218.14 8.32055 1239.58 -39.9107 1311.63 -39.9107C1374.75 -39.9107 1390.23 1.77062 1390.23 36.3065C1390.23 96.4477 1352.12 110.737 1275.31 155.396C1199.68 199.459 1152.64 257.813 1152.64 332.244H1437.86V284.608H1217.55V283.415C1243.15 185.166 1443.82 176.83 1443.82 35.7091C1443.82 -42.8899 1383.08 -87.5484 1312.82 -87.5484C1211 -87.5484 1164.55 -20.2629 1164.55 64.886L1218.14 64.888ZM1540.28 44.0474C1540.28 3.55698 1557.55 -39.9107 1637.93 -39.9107C1693.91 -39.9107 1716.53 -7.16107 1716.53 26.184C1716.53 73.8197 1684.38 93.4695 1642.1 93.4695H1600.42V141.105H1644.48C1684.38 141.105 1731.42 152.419 1731.42 216.727C1731.42 266.149 1705.81 292.944 1634.96 292.944C1556.95 292.944 1529.56 252.454 1529.56 192.909H1475.97C1475.97 285.799 1534.32 340.58 1639.12 340.58C1727.25 340.58 1785.01 297.708 1785.01 216.727C1785.01 168.496 1765.36 130.983 1707.01 114.906V113.713C1748.69 97.0402 1770.12 69.6496 1770.12 26.182C1770.12 -46.4626 1708.19 -87.5484 1637.93 -87.5484C1536.11 -87.5484 1486.69 -31.5764 1486.69 44.0454L1540.28 44.0474Z" fill=""/>
</svg>
