<svg width="43" height="40" viewBox="0 0 43 40" fill="none" xmlns="http://www.w3.org/2000/svg">
          <path d="M29.3931 39.3505H2.57511H2C0.89543 39.3505 0 38.4551 0 37.3505V14.0669C0 13.4657 0.270452 12.8964 0.736488 12.5166L12.8309 2.65974C14.1374 1.59493 16.0944 2.52461 16.0944 4.21007V11.156C16.0944 12.8469 18.0625 13.7748 19.367 12.6989L33.2553 1.24428C34.0939 0.552608 35.3315 0.657433 36.0418 1.48031L41.8896 8.25459C42.5861 9.06146 42.5274 10.2728 41.7562 11.0086L30.0081 22.2163C28.7024 23.4619 29.5841 25.6634 31.3887 25.6634H38.5058C40.2583 25.6634 41.1633 27.7573 39.9625 29.0337L30.8498 38.7209C30.4718 39.1227 29.9447 39.3505 29.3931 39.3505Z" fill="var(--accent)"/>
</svg>