<svg width="45" height="45" viewBox="0 0 129 129" fill="none" xmlns="http://www.w3.org/2000/svg">

                <path d="M24.7013 115.415C26.2305 117.956 31.5028 119.634 48.772 114.969C53.4576 113.702 56.9142 109.674 57.5078 104.796L68.0941 17.6201C66.5229 31.7718 62.3889 52.6703 50.008 74.1422C37.1171 96.5273 21.105 109.419 24.7013 115.415Z" fill="#000"/>
                <path fill-rule="evenodd" clip-rule="evenodd" d="M24.7013 115.415C26.2305 117.956 31.5028 119.634 48.772 114.969C53.4576 113.702 56.9142 109.674 57.5078 104.796L68.0941 17.6201C66.5229 31.7718 62.3889 52.6703 50.008 74.1422C37.1171 96.5273 21.105 109.419 24.7013 115.415Z" fill="#000"/>
                <path d="M103.29 13.5848C101.76 11.0433 96.4877 9.36551 79.2185 14.0309C74.5329 15.2981 71.0763 19.3262 70.4827 24.2039L59.8964 111.38C61.4675 97.2282 65.6016 76.3297 77.9826 54.8578C90.8802 32.4727 106.893 19.5811 103.29 13.5848Z" fill="#000"/>
                <path fill-rule="evenodd" clip-rule="evenodd" d="M103.29 13.5848C101.76 11.0433 96.4877 9.36551 79.2185 14.0309C74.5329 15.2981 71.0763 19.3262 70.4827 24.2039L59.8964 111.38C61.4675 97.2282 65.6016 76.3297 77.9826 54.8578C90.8802 32.4727 106.893 19.5811 103.29 13.5848Z" fill="#000"/>
</svg> 