<svg width="192" height="38" viewBox="0 0 192 38" fill="none" xmlns="http://www.w3.org/2000/svg">
<g id="650f4321db8fd48fc7c0a002_restricted-change-ident.svg" clip-path="url(#clip0_33_1940)">
<path id="Vector" fill-rule="evenodd" clip-rule="evenodd" d="M190.991 0.984359H1.00935V37.4057H190.991V0.984359ZM0.0249939 0V38.39H191.975V0H0.0249939Z" fill="var(--accent)"/>
<path id="Vector_2" d="M38.2465 32.4838C36.7581 32.4838 35.5651 32.283 34.6673 31.8814C33.7933 31.4562 33.1081 30.9128 32.6119 30.2513C32.1395 29.5662 31.797 28.7984 31.5843 27.9479C31.3954 27.0738 31.2418 26.1996 31.1236 25.3256C31.0055 24.4278 30.8756 23.5538 30.7338 22.7033C30.5921 21.8291 30.3205 21.0613 29.9187 20.3999C29.5172 19.7148 28.9384 19.1714 28.1824 18.7697C27.45 18.3445 26.4342 18.1318 25.1348 18.1318H18.1537V29.0464C18.1537 29.7315 18.2837 30.2867 18.5435 30.712C18.8271 31.1136 19.1695 31.4207 19.5713 31.6333C19.9729 31.846 20.398 31.9878 20.8469 32.0586C21.2958 32.1058 21.7092 32.1294 22.0872 32.1294V32.4838H8.55032V32.1294C8.92831 32.1294 9.34175 32.1058 9.79061 32.0586C10.2395 31.9878 10.6647 31.846 11.0663 31.6333C11.468 31.4207 11.7987 31.1136 12.0586 30.712C12.3421 30.2867 12.4838 29.7315 12.4838 29.0464V9.34351C12.4838 8.6584 12.3421 8.11503 12.0586 7.71342C11.7987 7.28817 11.468 6.96924 11.0663 6.75662C10.6647 6.54399 10.2395 6.41405 9.79061 6.36681C9.34175 6.29594 8.92831 6.26051 8.55032 6.26051V5.90613H25.1348C29.34 5.90613 32.4821 6.43768 34.5611 7.50079C36.6636 8.54027 37.7149 9.9932 37.7149 11.8595C37.7149 13.3951 37.0298 14.6826 35.6596 15.7222C34.313 16.7616 32.2812 17.4704 29.5645 17.8483C30.911 18.1554 32.0214 18.5925 32.8955 19.1596C33.7933 19.7265 34.5138 20.3762 35.0571 21.1086C35.6242 21.8409 36.0494 22.6206 36.3329 23.4474C36.6164 24.2742 36.8407 25.1011 37.0062 25.928C37.1952 26.7312 37.3605 27.5108 37.5023 28.2668C37.644 28.9992 37.833 29.6606 38.0692 30.2513C38.3056 30.8182 38.6245 31.2789 39.0261 31.6333C39.4277 31.964 39.9948 32.1294 40.727 32.1294V32.4838H38.2465ZM25.1348 17.4231C26.5051 17.4231 27.6271 17.2696 28.5013 16.9625C29.3991 16.6318 30.1078 16.2065 30.6276 15.6867C31.1472 15.1433 31.5134 14.5409 31.7261 13.8795C31.9387 13.218 32.045 12.5328 32.045 11.8241C32.045 11.139 31.9387 10.4893 31.7261 9.87506C31.5134 9.2372 31.1472 8.68203 30.6276 8.20953C30.1078 7.71342 29.3991 7.32361 28.5013 7.04011C27.6271 6.75662 26.5051 6.61488 25.1348 6.61488H18.1537V17.4231H25.1348Z" fill="var(--accent)"/>
<path id="Vector_3" fill-rule="evenodd" clip-rule="evenodd" d="M47.2742 38.39V0L48.2586 4.30279e-08V38.39H47.2742Z" fill="var(--accent)"/>
<path id="Vector_4" fill-rule="evenodd" clip-rule="evenodd" d="M47.2742 13.7811H191.975V14.7654H47.2742V13.7811Z" fill="var(--accent)"/>
<path id="Vector_5" d="M96.047 8.96747L96.106 10.0109C96.1126 10.3456 96.1848 10.6179 96.3226 10.8279H94.9543C94.8362 10.631 94.7738 10.3521 94.7673 9.99121L94.7378 9.22341C94.718 8.79685 94.6196 8.50154 94.4425 8.33748C94.2719 8.16686 93.9962 8.08155 93.6156 8.08155H91.8831V10.8279H90.5542V3.81927H93.7337C94.5146 3.81927 95.1217 3.99646 95.5548 4.35083C95.9879 4.70519 96.2044 5.18754 96.2044 5.79784C96.2044 6.63783 95.8139 7.19562 95.0331 7.47125C95.3874 7.58281 95.6401 7.76 95.791 8.0028C95.9486 8.23905 96.0339 8.5606 96.047 8.96747ZM91.8831 4.91191V7.03813H93.6549C94.0291 7.03813 94.3178 6.94625 94.5212 6.76251C94.7312 6.57219 94.8362 6.29986 94.8362 5.94549C94.8362 5.61081 94.7279 5.35488 94.5114 5.17769C94.3014 5.00051 93.9995 4.91191 93.6057 4.91191H91.8831Z" fill="var(--accent)"/>
<path id="Vector_6" d="M102.269 3.81927V5.01035H98.4295V6.66407H101.904V7.80593H98.4295V9.63684H102.249V10.8279H97.1006V3.81927H102.269Z" fill="var(--accent)"/>
<path id="Vector_7" d="M105.747 10.9854C104.796 10.9854 104.058 10.7722 103.533 10.3456C103.014 9.91905 102.752 9.30874 102.745 8.5147H104.054C104.061 9.01344 104.209 9.37108 104.497 9.58764C104.793 9.8042 105.223 9.91248 105.787 9.91248C106.246 9.91248 106.597 9.82717 106.84 9.65655C107.083 9.47937 107.204 9.22671 107.204 8.8986C107.204 8.62297 107.099 8.41298 106.889 8.2686C106.686 8.12423 106.312 7.99627 105.767 7.8847L105.176 7.76657C103.674 7.48439 102.922 6.77566 102.922 5.64037C102.922 5.03662 103.152 4.55757 103.611 4.2032C104.071 3.84226 104.707 3.6618 105.521 3.6618C106.446 3.6618 107.145 3.85868 107.618 4.25242C108.097 4.64617 108.349 5.1974 108.376 5.90614H107.086C107.06 5.50584 106.925 5.21053 106.683 5.02022C106.446 4.8299 106.066 4.73475 105.541 4.73475C105.134 4.73475 104.822 4.81023 104.606 4.96115C104.389 5.1121 104.281 5.32537 104.281 5.60099C104.281 5.88317 104.379 6.09973 104.576 6.25066C104.78 6.4016 105.137 6.52957 105.649 6.63456L106.259 6.75269C107.08 6.91676 107.67 7.16284 108.031 7.49096C108.399 7.81252 108.582 8.25876 108.582 8.82969C108.582 9.51218 108.333 10.0437 107.834 10.4244C107.336 10.7984 106.64 10.9854 105.747 10.9854Z" fill="var(--accent)"/>
<path id="Vector_8" d="M108.569 3.81927H114.396V5.01035H112.152V10.8279H110.813V5.01035H108.569V3.81927Z" fill="var(--accent)"/>
<path id="Vector_9" d="M120.56 8.96747L120.619 10.0109C120.625 10.3456 120.698 10.6179 120.835 10.8279H119.467C119.349 10.631 119.287 10.3521 119.28 9.99121L119.251 9.22341C119.231 8.79685 119.132 8.50154 118.955 8.33748C118.785 8.16686 118.509 8.08155 118.128 8.08155H116.396V10.8279H115.067V3.81927H118.247C119.028 3.81927 119.635 3.99646 120.068 4.35083C120.501 4.70519 120.717 5.18754 120.717 5.79784C120.717 6.63783 120.327 7.19562 119.546 7.47125C119.9 7.58281 120.153 7.76 120.304 8.0028C120.461 8.23905 120.547 8.5606 120.56 8.96747ZM116.396 4.91191V7.03813H118.168C118.542 7.03813 118.831 6.94625 119.034 6.76251C119.244 6.57219 119.349 6.29986 119.349 5.94549C119.349 5.61081 119.241 5.35488 119.024 5.17769C118.814 5.00051 118.512 4.91191 118.119 4.91191H116.396Z" fill="var(--accent)"/>
<path id="Vector_10" d="M122.942 10.8279H121.613V3.81927H122.942V10.8279Z" fill="var(--accent)"/>
<path id="Vector_11" d="M127.194 10.9854C126.184 10.9854 125.367 10.654 124.743 9.99123C124.113 9.32843 123.798 8.43922 123.798 7.32362C123.798 6.20145 124.11 5.30897 124.733 4.64617C125.35 3.98992 126.171 3.6618 127.194 3.6618C128.015 3.6618 128.713 3.88164 129.291 4.32132C129.868 4.76101 130.229 5.39755 130.374 6.23097H129.025C128.907 5.77161 128.687 5.42381 128.366 5.18756C128.051 4.94476 127.66 4.82335 127.194 4.82335C126.571 4.82335 126.079 5.04646 125.718 5.49271C125.363 5.93239 125.186 6.5427 125.186 7.32362C125.186 8.11111 125.363 8.72469 125.718 9.16437C126.072 9.60406 126.564 9.82389 127.194 9.82389C127.68 9.82389 128.097 9.67952 128.444 9.39077C128.792 9.10202 129.002 8.70173 129.074 8.18985H130.403C130.318 9.08234 129.97 9.77139 129.36 10.257C128.756 10.7426 128.034 10.9854 127.194 10.9854Z" fill="var(--accent)"/>
<path id="Vector_12" d="M130.303 3.81927H136.131V5.01035H133.887V10.8279H132.548V5.01035H130.303V3.81927Z" fill="var(--accent)"/>
<path id="Vector_13" d="M141.969 3.81927V5.01035H138.13V6.66407H141.606V7.80593H138.13V9.63684H141.95V10.8279H136.802V3.81927H141.969Z" fill="var(--accent)"/>
<path id="Vector_14" d="M142.791 3.81927H145.468C146.59 3.81927 147.456 4.13099 148.066 4.75441C148.677 5.38441 148.982 6.24079 148.982 7.3236C148.982 8.40639 148.677 9.25949 148.066 9.88292C147.456 10.5129 146.59 10.8279 145.468 10.8279H142.791V3.81927ZM144.119 9.68606H145.449C146.137 9.68606 146.669 9.4859 147.044 9.0856C147.417 8.67872 147.604 8.0914 147.604 7.3236C147.604 6.5558 147.417 5.97173 147.044 5.57144C146.669 5.16457 146.137 4.96113 145.449 4.96113H144.119V9.68606Z" fill="var(--accent)"/>
<path id="Vector_15" d="M89.9307 19.703H91.8049C92.5904 19.703 93.1967 19.9211 93.6239 20.3576C94.0511 20.7985 94.2648 21.3981 94.2648 22.156C94.2648 22.9139 94.0511 23.5112 93.6239 23.9476C93.1967 24.3885 92.5904 24.609 91.8049 24.609H89.9307V19.703ZM90.8608 23.8096H91.7911C92.2734 23.8096 92.6455 23.6697 92.9074 23.3894C93.1691 23.1045 93.3001 22.6934 93.3001 22.156C93.3001 21.6185 93.1691 21.2097 92.9074 20.9294C92.6455 20.6447 92.2734 20.5022 91.7911 20.5022H90.8608V23.8096Z" fill="var(--accent)"/>
<path id="Vector_16" d="M98.8871 24.0164C98.4369 24.485 97.8444 24.7192 97.1093 24.7192C96.3743 24.7192 95.7817 24.485 95.3316 24.0164C94.8813 23.5432 94.6563 22.9231 94.6563 22.1559C94.6563 21.3888 94.8813 20.7687 95.3316 20.2955C95.7817 19.8269 96.3743 19.5926 97.1093 19.5926C97.8444 19.5926 98.4369 19.8269 98.8871 20.2955C99.3327 20.7595 99.5555 21.3796 99.5555 22.1559C99.5555 22.9322 99.3327 23.5524 98.8871 24.0164ZM95.6279 22.1559C95.6279 22.6934 95.7634 23.1183 96.0344 23.4306C96.3055 23.7431 96.6637 23.8993 97.1093 23.8993C97.5594 23.8993 97.92 23.7431 98.1911 23.4306C98.4575 23.1228 98.5908 22.6979 98.5908 22.1559C98.5908 21.6138 98.4575 21.1889 98.1911 20.8811C97.92 20.5688 97.5594 20.4126 97.1093 20.4126C96.6637 20.4126 96.3055 20.5688 96.0344 20.8811C95.7634 21.1936 95.6279 21.6185 95.6279 22.1559Z" fill="var(--accent)"/>
<path id="Vector_17" d="M104.885 20.9845V19.703H105.78V24.609H104.747L103.382 22.4247C103.01 21.8413 102.719 21.3498 102.507 20.9501C102.526 21.4646 102.535 22.257 102.535 23.3273V24.609H101.639V19.703H102.673L104.044 21.8873C104.453 22.5487 104.742 23.0402 104.912 23.3618C104.894 22.6774 104.885 21.8849 104.885 20.9845Z" fill="var(--accent)"/>
<path id="Vector_18" d="M110.609 24.0164C110.159 24.485 109.566 24.7192 108.831 24.7192C108.096 24.7192 107.504 24.485 107.054 24.0164C106.603 23.5432 106.378 22.9231 106.378 22.1559C106.378 21.3888 106.603 20.7687 107.054 20.2955C107.504 19.8269 108.096 19.5926 108.831 19.5926C109.566 19.5926 110.159 19.8269 110.609 20.2955C111.055 20.7595 111.277 21.3796 111.277 22.1559C111.277 22.9322 111.055 23.5524 110.609 24.0164ZM107.35 22.1559C107.35 22.6934 107.485 23.1183 107.756 23.4306C108.027 23.7431 108.386 23.8993 108.831 23.8993C109.281 23.8993 109.642 23.7431 109.913 23.4306C110.179 23.1228 110.313 22.6979 110.313 22.1559C110.313 21.6138 110.179 21.1889 109.913 20.8811C109.642 20.5688 109.281 20.4126 108.831 20.4126C108.386 20.4126 108.027 20.5688 107.756 20.8811C107.485 21.1936 107.35 21.6185 107.35 22.1559Z" fill="var(--accent)"/>
<path id="Vector_19" d="M111.228 19.703H115.307V20.5368H113.736V24.609H112.799V20.5368H111.228V19.703Z" fill="var(--accent)"/>
<path id="Vector_20" d="M121.804 24.609H120.818L120.433 23.5272H118.283L117.904 24.609H116.946L118.813 19.703H119.902L121.804 24.609ZM118.751 22.2042L118.565 22.7347H120.15L119.957 22.2042C119.796 21.7954 119.594 21.2349 119.351 20.5229C119.158 21.0926 118.958 21.6529 118.751 22.2042Z" fill="var(--accent)"/>
<path id="Vector_21" d="M124.071 24.7192C123.363 24.7192 122.791 24.4872 122.355 24.0232C121.914 23.5592 121.693 22.9369 121.693 22.1559C121.693 21.3705 121.912 20.7457 122.348 20.2817C122.78 19.8224 123.354 19.5926 124.071 19.5926C124.645 19.5926 125.134 19.7466 125.538 20.0544C125.943 20.362 126.195 20.8076 126.296 21.391H125.352C125.27 21.0695 125.116 20.826 124.891 20.6607C124.67 20.4908 124.397 20.4058 124.071 20.4058C123.634 20.4058 123.29 20.5619 123.037 20.8743C122.789 21.1821 122.665 21.6093 122.665 22.1559C122.665 22.7071 122.789 23.1367 123.037 23.4445C123.285 23.7523 123.63 23.9061 124.071 23.9061C124.411 23.9061 124.702 23.8051 124.946 23.603C125.189 23.4007 125.336 23.1206 125.387 22.7622H126.317C126.257 23.387 126.014 23.8694 125.587 24.2093C125.164 24.5493 124.659 24.7192 124.071 24.7192Z" fill="var(--accent)"/>
<path id="Vector_22" d="M129.064 24.7192C128.356 24.7192 127.784 24.4872 127.348 24.0232C126.907 23.5592 126.686 22.9369 126.686 22.1559C126.686 21.3705 126.905 20.7457 127.341 20.2817C127.773 19.8224 128.347 19.5926 129.064 19.5926C129.638 19.5926 130.127 19.7466 130.531 20.0544C130.936 20.362 131.188 20.8076 131.289 21.391H130.345C130.263 21.0695 130.109 20.826 129.884 20.6607C129.663 20.4908 129.39 20.4058 129.064 20.4058C128.627 20.4058 128.283 20.5619 128.03 20.8743C127.782 21.1821 127.658 21.6093 127.658 22.1559C127.658 22.7071 127.782 23.1367 128.03 23.4445C128.278 23.7523 128.623 23.9061 129.064 23.9061C129.404 23.9061 129.695 23.8051 129.939 23.603C130.182 23.4007 130.329 23.1206 130.38 22.7622H131.31C131.25 23.387 131.007 23.8694 130.58 24.2093C130.157 24.5493 129.652 24.7192 129.064 24.7192Z" fill="var(--accent)"/>
<path id="Vector_23" d="M135.504 19.703V20.5368H132.816V21.6943H135.249V22.4935H132.816V23.7752H135.49V24.609H131.886V19.703H135.504Z" fill="var(--accent)"/>
<path id="Vector_24" d="M137.938 24.7192C137.273 24.7192 136.756 24.5699 136.388 24.2714C136.026 23.9728 135.842 23.5455 135.837 22.9897H136.754C136.758 23.3388 136.862 23.5891 137.064 23.7408C137.271 23.8923 137.571 23.9681 137.966 23.9681C138.288 23.9681 138.533 23.9084 138.703 23.789C138.873 23.6649 138.958 23.4881 138.958 23.2584C138.958 23.0655 138.886 22.9185 138.738 22.8174C138.595 22.7163 138.335 22.6268 137.952 22.5486L137.539 22.4659C136.487 22.2685 135.961 21.7723 135.961 20.9776C135.961 20.5551 136.122 20.2197 136.444 19.9717C136.765 19.719 137.21 19.5926 137.781 19.5926C138.428 19.5926 138.917 19.7305 139.248 20.0061C139.584 20.2817 139.76 20.6675 139.778 21.1637H138.876C138.857 20.8835 138.764 20.6767 138.594 20.5436C138.428 20.4103 138.162 20.3437 137.794 20.3437C137.509 20.3437 137.291 20.3966 137.139 20.5022C136.988 20.6079 136.912 20.7572 136.912 20.9501C136.912 21.1477 136.981 21.2992 137.119 21.4049C137.261 21.5104 137.512 21.6001 137.87 21.6736L138.298 21.7563C138.872 21.8712 139.285 22.0434 139.537 22.273C139.795 22.4982 139.924 22.8105 139.924 23.2102C139.924 23.688 139.748 24.06 139.4 24.3265C139.05 24.5882 138.564 24.7192 137.938 24.7192Z" fill="var(--accent)"/>
<path id="Vector_25" d="M142.374 24.7192C141.707 24.7192 141.191 24.5699 140.823 24.2714C140.46 23.9728 140.276 23.5455 140.272 22.9897H141.188C141.193 23.3388 141.296 23.5891 141.498 23.7408C141.705 23.8923 142.006 23.9681 142.401 23.9681C142.722 23.9681 142.969 23.9084 143.137 23.789C143.307 23.6649 143.392 23.4881 143.392 23.2584C143.392 23.0655 143.32 22.9185 143.173 22.8174C143.03 22.7163 142.769 22.6268 142.387 22.5486L141.973 22.4659C140.922 22.2685 140.395 21.7723 140.395 20.9776C140.395 20.5551 140.557 20.2197 140.878 19.9717C141.2 19.719 141.646 19.5926 142.215 19.5926C142.862 19.5926 143.351 19.7305 143.683 20.0061C144.018 20.2817 144.195 20.6675 144.214 21.1637H143.31C143.292 20.8835 143.198 20.6767 143.028 20.5436C142.862 20.4103 142.596 20.3437 142.228 20.3437C141.943 20.3437 141.725 20.3966 141.574 20.5022C141.422 20.6079 141.347 20.7572 141.347 20.9501C141.347 21.1477 141.415 21.2992 141.554 21.4049C141.695 21.5104 141.946 21.6001 142.304 21.6736L142.732 21.7563C143.306 21.8712 143.719 22.0434 143.972 22.273C144.229 22.4982 144.358 22.8105 144.358 23.2102C144.358 23.688 144.184 24.06 143.834 24.3265C143.484 24.5882 142.998 24.7192 142.374 24.7192Z" fill="var(--accent)"/>
<path id="Vector_26" d="M147.311 24.609H146.38V19.703H147.311V24.609Z" fill="var(--accent)"/>
<path id="Vector_27" d="M151.582 19.703V20.5368H149.047V21.6943H151.356V22.4935H149.047V24.609H148.116V19.703H151.582Z" fill="var(--accent)"/>
<path id="Vector_28" d="M77.6597 27.4755L78.1972 26.5934H79.2238L77.384 29.5632V31.4996H76.4539V29.5632L74.6003 26.5934H75.6545L76.1988 27.4823C76.6399 28.2173 76.8856 28.6307 76.9362 28.7226C77.0602 28.5021 77.3013 28.0864 77.6597 27.4755Z" fill="var(--accent)"/>
<path id="Vector_29" d="M83.1143 30.9068C82.6641 31.3755 82.0716 31.6098 81.3365 31.6098C80.6015 31.6098 80.0089 31.3755 79.5588 30.9068C79.1085 30.4338 78.8835 29.8135 78.8835 29.0464C78.8835 28.2793 79.1085 27.6592 79.5588 27.186C80.0089 26.7175 80.6015 26.4832 81.3365 26.4832C82.0716 26.4832 82.6641 26.7175 83.1143 27.186C83.5599 27.65 83.7827 28.2701 83.7827 29.0464C83.7827 29.8227 83.5599 30.443 83.1143 30.9068ZM79.8551 29.0464C79.8551 29.5839 79.9905 30.0088 80.2616 30.3213C80.5327 30.6336 80.8909 30.7897 81.3365 30.7897C81.7867 30.7897 82.1472 30.6336 82.4183 30.3213C82.6847 30.0134 82.818 29.5886 82.818 29.0464C82.818 28.5044 82.6847 28.0796 82.4183 27.7717C82.1472 27.4594 81.7867 27.3031 81.3365 27.3031C80.8909 27.3031 80.5327 27.4594 80.2616 27.7717C79.9905 28.0841 79.8551 28.509 79.8551 29.0464Z" fill="var(--accent)"/>
<path id="Vector_30" d="M86.3637 31.6028C85.7252 31.6028 85.2221 31.4329 84.8547 31.0929C84.4918 30.7485 84.3102 30.2683 84.3102 29.6529V26.5934H85.2405V29.6597C85.2405 30.0318 85.337 30.3143 85.53 30.5073C85.7229 30.7002 86.0008 30.7966 86.3637 30.7966C86.7266 30.7966 87.0045 30.7002 87.1974 30.5073C87.3904 30.3143 87.4869 30.0318 87.4869 29.6597V26.5934H88.417V29.6529C88.417 30.2775 88.2356 30.7599 87.8727 31.0999C87.5098 31.4351 87.0069 31.6028 86.3637 31.6028Z" fill="var(--accent)"/>
<path id="Vector_31" d="M89.0123 27.5167V26.5934H89.9632V27.5925C89.9632 28.2082 89.6852 28.5251 89.1294 28.5435L89.0123 28.5504V28.0749L89.1226 28.068C89.32 28.0542 89.4188 27.9072 89.4188 27.627V27.5167H89.0123Z" fill="var(--accent)"/>
<path id="Vector_32" d="M94.4687 30.1972L94.5101 30.9275C94.5146 31.1619 94.5652 31.3524 94.6616 31.4996H93.7039C93.6211 31.3616 93.5774 31.1664 93.5729 30.9138L93.5522 30.3764C93.5384 30.0777 93.4696 29.871 93.3455 29.7562C93.2261 29.6368 93.0331 29.577 92.7667 29.577H91.554V31.4996H90.6237V26.5934H92.8494C93.3961 26.5934 93.821 26.7175 94.1241 26.9656C94.4272 27.2136 94.5789 27.5513 94.5789 27.9785C94.5789 28.5664 94.3056 28.9569 93.759 29.1498C94.007 29.228 94.1839 29.3519 94.2895 29.5219C94.3997 29.6873 94.4595 29.9124 94.4687 30.1972ZM91.554 27.3582V28.8467H92.7943C93.056 28.8467 93.2583 28.7824 93.4006 28.6538C93.5476 28.5205 93.6211 28.3299 93.6211 28.0817C93.6211 27.8476 93.5454 27.6684 93.3937 27.5443C93.2467 27.4203 93.0355 27.3582 92.7598 27.3582H91.554Z" fill="var(--accent)"/>
<path id="Vector_33" d="M98.8237 26.5934V27.4272H96.1364V28.5848H98.5688V29.3841H96.1364V30.6658H98.81V31.4996H95.2061V26.5934H98.8237Z" fill="var(--accent)"/>
<path id="Vector_34" d="M105.385 31.4996H104.4L104.014 30.4176H101.864L101.485 31.4996H100.527L102.395 26.5934H103.483L105.385 31.4996ZM102.333 29.0947L102.147 29.6253H103.731L103.538 29.0947C103.378 28.6858 103.175 28.1255 102.932 27.4133C102.739 27.983 102.539 28.5435 102.333 29.0947Z" fill="var(--accent)"/>
<path id="Vector_35" d="M109.21 26.5934V27.4272H106.674V28.5848H108.982V29.3841H106.674V31.4996H105.744V26.5934H109.21Z" fill="var(--accent)"/>
<path id="Vector_36" d="M113.559 30.1972L113.6 30.9275C113.605 31.1619 113.655 31.3524 113.752 31.4996H112.794C112.711 31.3616 112.668 31.1664 112.663 30.9138L112.642 30.3764C112.629 30.0777 112.56 29.871 112.436 29.7562C112.316 29.6368 112.123 29.577 111.857 29.577H110.644V31.4996H109.714V26.5934H111.94C112.486 26.5934 112.911 26.7175 113.214 26.9656C113.517 27.2136 113.669 27.5513 113.669 27.9785C113.669 28.5664 113.396 28.9569 112.849 29.1498C113.097 29.228 113.274 29.3519 113.38 29.5219C113.49 29.6873 113.55 29.9124 113.559 30.1972ZM110.644 27.3582V28.8467H111.884C112.146 28.8467 112.348 28.7824 112.491 28.6538C112.638 28.5205 112.711 28.3299 112.711 28.0817C112.711 27.8476 112.635 27.6684 112.484 27.5443C112.337 27.4203 112.126 27.3582 111.85 27.3582H110.644Z" fill="var(--accent)"/>
<path id="Vector_37" d="M118.688 31.4996H117.703L117.317 30.4176H115.167L114.788 31.4996H113.831L115.698 26.5934H116.787L118.688 31.4996ZM115.636 29.0947L115.45 29.6253H117.035L116.842 29.0947C116.681 28.6858 116.479 28.1255 116.235 27.4133C116.042 27.983 115.842 28.5435 115.636 29.0947Z" fill="var(--accent)"/>
<path id="Vector_38" d="M119.977 31.4996H119.047V26.5934H119.977V31.4996Z" fill="var(--accent)"/>
<path id="Vector_39" d="M120.783 26.5934H122.657C123.443 26.5934 124.049 26.8116 124.476 27.248C124.904 27.6891 125.117 28.2885 125.117 29.0464C125.117 29.8044 124.904 30.4016 124.476 30.838C124.049 31.2789 123.443 31.4996 122.657 31.4996H120.783V26.5934ZM121.713 30.7002H122.644C123.126 30.7002 123.498 30.5601 123.76 30.2798C124.022 29.9951 124.153 29.5839 124.153 29.0464C124.153 28.509 124.022 28.1001 123.76 27.82C123.498 27.5351 123.126 27.3928 122.644 27.3928H121.713V30.7002Z" fill="var(--accent)"/>
<path id="Vector_40" d="M131.227 30.9068C130.777 31.3755 130.184 31.6098 129.449 31.6098C128.714 31.6098 128.121 31.3755 127.671 30.9068C127.221 30.4338 126.996 29.8135 126.996 29.0464C126.996 28.2793 127.221 27.6592 127.671 27.186C128.121 26.7175 128.714 26.4832 129.449 26.4832C130.184 26.4832 130.777 26.7175 131.227 27.186C131.672 27.65 131.895 28.2701 131.895 29.0464C131.895 29.8227 131.672 30.443 131.227 30.9068ZM127.967 29.0464C127.967 29.5839 128.103 30.0088 128.374 30.3213C128.645 30.6336 129.003 30.7897 129.449 30.7897C129.899 30.7897 130.26 30.6336 130.531 30.3213C130.797 30.0134 130.931 29.5886 130.931 29.0464C130.931 28.5044 130.797 28.0796 130.531 27.7717C130.26 27.4594 129.899 27.3031 129.449 27.3031C129.003 27.3031 128.645 27.4594 128.374 27.7717C128.103 28.0841 127.967 28.509 127.967 29.0464Z" fill="var(--accent)"/>
<path id="Vector_41" d="M135.958 26.5934V27.4272H133.422V28.5848H135.73V29.3841H133.422V31.4996H132.492V26.5934H135.958Z" fill="var(--accent)"/>
<path id="Vector_42" d="M140.12 31.6098C139.412 31.6098 138.84 31.3778 138.403 30.9138C137.963 30.4499 137.742 29.8274 137.742 29.0464C137.742 28.2609 137.96 27.6361 138.396 27.1723C138.828 26.7129 139.403 26.4832 140.12 26.4832C140.694 26.4832 141.182 26.637 141.587 26.9449C141.991 27.2527 142.243 27.6983 142.345 28.2816H141.402C141.318 27.9601 141.164 27.7166 140.94 27.5513C140.719 27.3813 140.446 27.2963 140.12 27.2963C139.684 27.2963 139.338 27.4524 139.086 27.7649C138.838 28.0726 138.714 28.4998 138.714 29.0464C138.714 29.5977 138.838 30.0272 139.086 30.335C139.334 30.6428 139.678 30.7966 140.12 30.7966C140.46 30.7966 140.75 30.6956 140.994 30.4935C141.238 30.2914 141.385 30.0111 141.436 29.6529H142.366C142.307 30.2775 142.063 30.7599 141.635 31.0999C141.212 31.4398 140.708 31.6098 140.12 31.6098Z" fill="var(--accent)"/>
<path id="Vector_43" d="M146.152 28.5641V26.5934H147.083V31.4996H146.152V29.4048H143.872V31.4996H142.941V26.5934H143.872V28.5641H146.152Z" fill="var(--accent)"/>
<path id="Vector_44" d="M152.293 31.4996H151.308L150.922 30.4176H148.773L148.393 31.4996H147.436L149.303 26.5934H150.392L152.293 31.4996ZM149.24 29.0947L149.055 29.6253H150.64L150.447 29.0947C150.286 28.6858 150.083 28.1255 149.841 27.4133C149.647 27.983 149.447 28.5435 149.24 29.0947Z" fill="var(--accent)"/>
<path id="Vector_45" d="M155.897 27.8751V26.5934H156.793V31.4996H155.76L154.395 29.3152C154.022 28.7318 153.732 28.2402 153.521 27.8406C153.538 28.3551 153.548 29.1475 153.548 30.2179V31.4996H152.651V26.5934H153.685L155.056 28.7777C155.466 29.4392 155.755 29.9308 155.925 30.2523C155.906 29.5678 155.897 28.7755 155.897 27.8751Z" fill="var(--accent)"/>
<path id="Vector_46" d="M159.947 29.6046V28.8535H162.139V31.4996H161.463L161.333 30.8517C160.979 31.3571 160.446 31.6098 159.734 31.6098C159.027 31.6098 158.459 31.3755 158.031 30.9068C157.605 30.4383 157.391 29.8182 157.391 29.0464C157.391 28.2748 157.609 27.6523 158.045 27.1792C158.482 26.7152 159.072 26.4832 159.817 26.4832C160.432 26.4832 160.944 26.6394 161.353 26.9517C161.757 27.2642 162.001 27.6891 162.083 28.2265H161.126C161.057 27.9371 160.905 27.7098 160.671 27.5443C160.442 27.3789 160.159 27.2963 159.823 27.2963C159.374 27.2963 159.017 27.4524 158.755 27.7649C158.493 28.0772 158.362 28.5044 158.362 29.0464C158.362 29.5886 158.496 30.0158 158.762 30.3281C159.028 30.6404 159.394 30.7966 159.858 30.7966C160.225 30.7966 160.54 30.6864 160.802 30.4659C161.064 30.2454 161.205 29.9583 161.229 29.6046H159.947Z" fill="var(--accent)"/>
<path id="Vector_47" d="M166.484 26.5934V27.4272H163.797V28.5848H166.229V29.3841H163.797V30.6658H166.47V31.4996H162.866V26.5934H166.484Z" fill="var(--accent)"/>
</g>
<defs>
<clipPath id="clip0_33_1940">
<rect width="191.95" height="38.39" fill="white" transform="translate(0.0249939)"/>
</clipPath>
</defs>
</svg>
