<svg width="132" height="58" viewBox="0 0 132 58" fill="none" xmlns="http://www.w3.org/2000/svg">
<g clip-path="url(#clip0_50_298)">
<path d="M29.9831 39.3504H3.16514H2.59003C1.48546 39.3504 0.590027 38.455 0.590027 37.3504V14.0668C0.590027 13.4656 0.860479 12.8963 1.32651 12.5165L13.4209 2.65969C14.7274 1.59488 16.6844 2.52456 16.6844 4.21002V11.1559C16.6844 12.8468 18.6525 13.7747 19.957 12.6988L33.8453 1.24423C34.6839 0.552556 35.9215 0.657381 36.6318 1.48026L42.4796 8.25454C43.1761 9.06141 43.1174 10.2727 42.3462 11.0085L30.5981 22.2162C29.2924 23.4618 30.1741 25.6633 31.9787 25.6633H39.0958C40.8483 25.6633 41.7533 27.7572 40.5525 29.0336L31.4398 38.7208C31.0618 39.1226 30.5347 39.3504 29.9831 39.3504Z" fill="var(--accent)"/>
</g>
<g clip-path="url(#clip1_50_298)">
<path d="M74.4165 40.3504H47.5986H47.0235C45.9189 40.3504 45.0235 39.455 45.0235 38.3504V15.0668C45.0235 14.4656 45.2939 13.8963 45.76 13.5165L57.8544 3.65969C59.1609 2.59488 61.1179 3.52456 61.1179 5.21002V12.1559C61.1179 13.8468 63.086 14.7747 64.3904 13.6988L78.2788 2.24423C79.1174 1.55256 80.3549 1.65738 81.0653 2.48026L86.9131 9.25454C87.6096 10.0614 87.5509 11.2727 86.7797 12.0085L75.0316 23.2162C73.7259 24.4618 74.6076 26.6633 76.4122 26.6633H83.5293C85.2818 26.6633 86.1868 28.7572 84.986 30.0336L75.8733 39.7208C75.4953 40.1226 74.9682 40.3504 74.4165 40.3504Z" stroke="var(--accent)" stroke-width="2"/>
</g>
<g clip-path="url(#clip2_50_298)">
<path d="M117.983 39.3504H91.1651H90.59C89.4855 39.3504 88.59 38.455 88.59 37.3504V14.0668C88.59 13.4656 88.8605 12.8963 89.3265 12.5165L101.421 2.65969C102.727 1.59488 104.684 2.52456 104.684 4.21002V11.1559C104.684 12.8468 106.653 13.7747 107.957 12.6988L121.845 1.24423C122.684 0.552556 123.922 0.657381 124.632 1.48026L130.48 8.25454C131.176 9.06141 131.117 10.2727 130.346 11.0085L118.598 22.2162C117.292 23.4618 118.174 25.6633 119.979 25.6633H127.096C128.848 25.6633 129.753 27.7572 128.553 29.0336L119.44 38.7208C119.062 39.1226 118.535 39.3504 117.983 39.3504Z" fill="var(--accent)"/>
</g>
<path d="M2.71112 47.4688V56H1.58026V47.4688H2.71112ZM7.86151 47.4688L4.31659 51.4473L2.3244 53.5156L2.1369 52.3086L3.6369 50.6562L6.50214 47.4688H7.86151ZM6.77167 56L3.61346 51.8398L4.28729 50.9434L8.11932 56H6.77167ZM14.5353 55.0801V56H10.0178V55.0801H14.5353ZM10.2463 47.4688V56H9.11542V47.4688H10.2463ZM13.9377 51.1367V52.0566H10.0178V51.1367H13.9377ZM14.4767 47.4688V48.3945H10.0178V47.4688H14.4767ZM21.3557 55.0801V56H16.8381V55.0801H21.3557ZM17.0666 47.4688V56H15.9357V47.4688H17.0666ZM20.758 51.1367V52.0566H16.8381V51.1367H20.758ZM21.2971 47.4688V48.3945H16.8381V47.4688H21.2971ZM25.9025 52.6543H23.6232V51.7344H25.9025C26.3439 51.7344 26.7014 51.6641 26.9748 51.5234C27.2482 51.3828 27.4474 51.1875 27.5724 50.9375C27.7014 50.6875 27.7658 50.4023 27.7658 50.082C27.7658 49.7891 27.7014 49.5137 27.5724 49.2559C27.4474 48.998 27.2482 48.791 26.9748 48.6348C26.7014 48.4746 26.3439 48.3945 25.9025 48.3945H23.8869V56H22.756V47.4688H25.9025C26.5471 47.4688 27.092 47.5801 27.5373 47.8027C27.9826 48.0254 28.3205 48.334 28.551 48.7285C28.7814 49.1191 28.8967 49.5664 28.8967 50.0703C28.8967 50.6172 28.7814 51.084 28.551 51.4707C28.3205 51.8574 27.9826 52.1523 27.5373 52.3555C27.092 52.5547 26.5471 52.6543 25.9025 52.6543ZM37.8498 53.8438C37.8498 53.6445 37.8185 53.4688 37.756 53.3164C37.6974 53.1602 37.592 53.0195 37.4396 52.8945C37.2912 52.7695 37.0842 52.6504 36.8185 52.5371C36.5568 52.4238 36.2248 52.3086 35.8224 52.1914C35.4006 52.0664 35.0197 51.9277 34.6799 51.7754C34.34 51.6191 34.049 51.4414 33.8068 51.2422C33.5646 51.043 33.3791 50.8145 33.2502 50.5566C33.1213 50.2988 33.0568 50.0039 33.0568 49.6719C33.0568 49.3398 33.1252 49.0332 33.2619 48.752C33.3986 48.4707 33.5939 48.2266 33.8478 48.0195C34.1057 47.8086 34.4123 47.6445 34.7678 47.5273C35.1232 47.4102 35.5197 47.3516 35.9572 47.3516C36.5978 47.3516 37.1408 47.4746 37.5861 47.7207C38.0353 47.9629 38.3771 48.2812 38.6115 48.6758C38.8459 49.0664 38.9631 49.4844 38.9631 49.9297H37.8381C37.8381 49.6094 37.7697 49.3262 37.633 49.0801C37.4963 48.8301 37.2892 48.6348 37.0119 48.4941C36.7346 48.3496 36.383 48.2773 35.9572 48.2773C35.5549 48.2773 35.2228 48.3379 34.9611 48.459C34.6994 48.5801 34.5041 48.7441 34.3752 48.9512C34.2502 49.1582 34.1877 49.3945 34.1877 49.6602C34.1877 49.8398 34.2248 50.0039 34.299 50.1523C34.3771 50.2969 34.4963 50.4316 34.6564 50.5566C34.8205 50.6816 35.0275 50.7969 35.2775 50.9023C35.5314 51.0078 35.8342 51.1094 36.1857 51.207C36.6701 51.3438 37.0881 51.4961 37.4396 51.6641C37.7912 51.832 38.0803 52.0215 38.3068 52.2324C38.5373 52.4395 38.7072 52.6758 38.8166 52.9414C38.9299 53.2031 38.9865 53.5 38.9865 53.832C38.9865 54.1797 38.9162 54.4941 38.7756 54.7754C38.6349 55.0566 38.4338 55.2969 38.1721 55.4961C37.9103 55.6953 37.5959 55.8496 37.2287 55.959C36.8654 56.0645 36.4592 56.1172 36.0099 56.1172C35.6154 56.1172 35.2267 56.0625 34.8439 55.9531C34.465 55.8438 34.1193 55.6797 33.8068 55.4609C33.4982 55.2422 33.2502 54.9727 33.0627 54.6523C32.8791 54.3281 32.7873 53.9531 32.7873 53.5273H33.9123C33.9123 53.8203 33.9689 54.0723 34.0822 54.2832C34.1955 54.4902 34.3498 54.6621 34.5451 54.7988C34.7443 54.9355 34.9689 55.0371 35.2189 55.1035C35.4728 55.166 35.7365 55.1973 36.0099 55.1973C36.4045 55.1973 36.7385 55.1426 37.0119 55.0332C37.2853 54.9238 37.4924 54.7676 37.633 54.5645C37.7775 54.3613 37.8498 54.1211 37.8498 53.8438ZM45.5783 53.2871H46.7033C46.6447 53.8262 46.4904 54.3086 46.2404 54.7344C45.9904 55.1602 45.6369 55.498 45.1799 55.748C44.7228 55.9941 44.1525 56.1172 43.4689 56.1172C42.9689 56.1172 42.5139 56.0234 42.1037 55.8359C41.6974 55.6484 41.3478 55.3828 41.0549 55.0391C40.7619 54.6914 40.5353 54.2754 40.3752 53.791C40.2189 53.3027 40.1408 52.7598 40.1408 52.1621V51.3125C40.1408 50.7148 40.2189 50.1738 40.3752 49.6895C40.5353 49.2012 40.7639 48.7832 41.0607 48.4355C41.3615 48.0879 41.7228 47.8203 42.1447 47.6328C42.5666 47.4453 43.0412 47.3516 43.5685 47.3516C44.2131 47.3516 44.758 47.4727 45.2033 47.7148C45.6486 47.957 45.9943 48.293 46.2404 48.7227C46.4904 49.1484 46.6447 49.6426 46.7033 50.2051H45.5783C45.5236 49.8066 45.4221 49.4648 45.2736 49.1797C45.1252 48.8906 44.9142 48.668 44.6408 48.5117C44.3674 48.3555 44.0099 48.2773 43.5685 48.2773C43.1896 48.2773 42.8557 48.3496 42.5666 48.4941C42.2814 48.6387 42.0412 48.8438 41.8459 49.1094C41.6545 49.375 41.5099 49.6934 41.4123 50.0645C41.3146 50.4355 41.2658 50.8477 41.2658 51.3008V52.1621C41.2658 52.5801 41.3088 52.9727 41.3947 53.3398C41.4846 53.707 41.6193 54.0293 41.799 54.3066C41.9787 54.584 42.2072 54.8027 42.4846 54.9629C42.7619 55.1191 43.09 55.1973 43.4689 55.1973C43.9494 55.1973 44.3322 55.1211 44.6174 54.9688C44.9025 54.8164 45.1174 54.5977 45.2619 54.3125C45.4103 54.0273 45.5158 53.6855 45.5783 53.2871ZM48.2443 47.4688H51.0685C51.7092 47.4688 52.2502 47.5664 52.6916 47.7617C53.1369 47.957 53.4748 48.2461 53.7053 48.6289C53.9396 49.0078 54.0568 49.4746 54.0568 50.0293C54.0568 50.4199 53.9767 50.7773 53.8166 51.1016C53.6603 51.4219 53.4338 51.6953 53.1369 51.9219C52.8439 52.1445 52.4924 52.3105 52.0822 52.4199L51.7658 52.543H49.1115L49.0998 51.623H51.1037C51.5099 51.623 51.8478 51.5527 52.1174 51.4121C52.3869 51.2676 52.59 51.0742 52.7267 50.832C52.8635 50.5898 52.9318 50.3223 52.9318 50.0293C52.9318 49.7012 52.8674 49.4141 52.7385 49.168C52.6096 48.9219 52.4064 48.7324 52.1291 48.5996C51.8557 48.4629 51.5021 48.3945 51.0685 48.3945H49.3752V56H48.2443V47.4688ZM53.2307 56L51.1564 52.1328L52.3342 52.127L54.4377 55.9297V56H53.2307ZM62.2072 51.4648V52.0039C62.2072 52.6445 62.1271 53.2188 61.967 53.7266C61.8068 54.2344 61.5764 54.666 61.2756 55.0215C60.9748 55.377 60.6135 55.6484 60.1916 55.8359C59.7736 56.0234 59.3049 56.1172 58.7853 56.1172C58.2814 56.1172 57.8185 56.0234 57.3967 55.8359C56.9787 55.6484 56.6154 55.377 56.3068 55.0215C56.0021 54.666 55.7658 54.2344 55.5978 53.7266C55.4299 53.2188 55.3459 52.6445 55.3459 52.0039V51.4648C55.3459 50.8242 55.4279 50.252 55.592 49.748C55.7599 49.2402 55.9963 48.8086 56.301 48.4531C56.6057 48.0938 56.967 47.8203 57.3849 47.6328C57.8068 47.4453 58.2697 47.3516 58.7736 47.3516C59.2932 47.3516 59.7619 47.4453 60.1799 47.6328C60.6017 47.8203 60.9631 48.0938 61.2639 48.4531C61.5685 48.8086 61.801 49.2402 61.9611 49.748C62.1252 50.252 62.2072 50.8242 62.2072 51.4648ZM61.0881 52.0039V51.4531C61.0881 50.9453 61.0353 50.4961 60.9299 50.1055C60.8283 49.7148 60.6779 49.3867 60.4787 49.1211C60.2795 48.8555 60.0353 48.6543 59.7463 48.5176C59.4611 48.3809 59.1369 48.3125 58.7736 48.3125C58.4221 48.3125 58.1037 48.3809 57.8185 48.5176C57.5373 48.6543 57.2951 48.8555 57.092 49.1211C56.8928 49.3867 56.7385 49.7148 56.6291 50.1055C56.5197 50.4961 56.465 50.9453 56.465 51.4531V52.0039C56.465 52.5156 56.5197 52.9688 56.6291 53.3633C56.7385 53.7539 56.8947 54.084 57.0978 54.3535C57.3049 54.6191 57.549 54.8203 57.8303 54.957C58.1154 55.0938 58.4338 55.1621 58.7853 55.1621C59.1525 55.1621 59.4787 55.0938 59.7639 54.957C60.049 54.8203 60.2892 54.6191 60.4846 54.3535C60.6838 54.084 60.8342 53.7539 60.9357 53.3633C61.0373 52.9688 61.0881 52.5156 61.0881 52.0039ZM69.0744 55.0801V56H64.8088V55.0801H69.0744ZM65.0314 47.4688V56H63.9006V47.4688H65.0314ZM75.5432 55.0801V56H71.2775V55.0801H75.5432ZM71.5002 47.4688V56H70.3693V47.4688H71.5002ZM78.051 47.4688V56H76.9201V47.4688H78.051ZM86.6701 47.4688V56H85.5334L81.2385 49.4199V56H80.1076V47.4688H81.2385L85.551 54.0664V47.4688H86.6701ZM94.9787 51.752V54.875C94.8732 55.0312 94.7053 55.207 94.4748 55.4023C94.2443 55.5938 93.926 55.7617 93.5197 55.9062C93.1174 56.0469 92.5978 56.1172 91.9611 56.1172C91.4416 56.1172 90.9631 56.0273 90.5256 55.8477C90.092 55.6641 89.715 55.3984 89.3947 55.0508C89.0783 54.6992 88.8322 54.2734 88.6564 53.7734C88.4846 53.2695 88.3986 52.6992 88.3986 52.0625V51.4004C88.3986 50.7637 88.4728 50.1953 88.6213 49.6953C88.7736 49.1953 88.9963 48.7715 89.2892 48.4238C89.5822 48.0723 89.9416 47.8066 90.3674 47.627C90.7932 47.4434 91.2814 47.3516 91.8322 47.3516C92.4846 47.3516 93.0295 47.4648 93.467 47.6914C93.9084 47.9141 94.2521 48.2227 94.4982 48.6172C94.7482 49.0117 94.9084 49.4609 94.9787 49.9648H93.8478C93.7971 49.6562 93.6955 49.375 93.5432 49.1211C93.3947 48.8672 93.1818 48.6641 92.9045 48.5117C92.6271 48.3555 92.2697 48.2773 91.8322 48.2773C91.4377 48.2773 91.0959 48.3496 90.8068 48.4941C90.5178 48.6387 90.2795 48.8457 90.092 49.1152C89.9045 49.3848 89.7639 49.7109 89.6701 50.0938C89.5803 50.4766 89.5353 50.9082 89.5353 51.3887V52.0625C89.5353 52.5547 89.592 52.9941 89.7053 53.3809C89.8224 53.7676 89.9885 54.0977 90.2033 54.3711C90.4182 54.6406 90.674 54.8457 90.9709 54.9863C91.2717 55.127 91.6037 55.1973 91.967 55.1973C92.3693 55.1973 92.6955 55.1641 92.9455 55.0977C93.1955 55.0273 93.3908 54.9453 93.5314 54.8516C93.6721 54.7539 93.7795 54.6621 93.8537 54.5762V52.666H91.8791V51.752H94.9787Z" fill="var(--accent)"/>
<defs>
<clipPath id="clip0_50_298">
<rect width="43" height="40" fill="white" transform="translate(0.590027)"/>
</clipPath>
<clipPath id="clip1_50_298">
<rect width="45" height="42" fill="white" transform="translate(43.59)"/>
</clipPath>
<clipPath id="clip2_50_298">
<rect width="43" height="40" fill="white" transform="translate(88.59)"/>
</clipPath>
</defs>
</svg>
